<svg xmlns="http://www.w3.org/2000/svg" xmlns:xlink="http://www.w3.org/1999/xlink" width="334" zoomAndPan="magnify" viewBox="0 0 250.5 374.999991" height="500" preserveAspectRatio="xMidYMid meet" version="1.0"><defs><clipPath id="2bb8a47c31"><path d="M 0 0.375 L 244 0.375 L 244 374.625 L 0 374.625 Z M 0 0.375 " clip-rule="nonzero"/></clipPath></defs><g clip-path="url(#2bb8a47c31)"><path fill="#ffffff" d="M 183.09375 185.160156 C 182.753906 187.335938 181.925781 189.402344 180.675781 191.214844 C 179.421875 193.023438 177.773438 194.523438 175.855469 195.605469 C 171.996094 198.097656 168.617188 199.34375 165.199219 200.585938 C 157.917969 203.097656 150.257812 205.609375 142.152344 208.523438 C 133.609375 211.433594 125.945312 214.347656 119.109375 216.457031 C 110.585938 219.367188 102.480469 221.878906 94.777344 224.789062 C 88.984375 227.269531 83.542969 230.496094 78.59375 234.390625 C 73.988281 238.558594 69.96875 243.328125 66.648438 248.574219 C 63.230469 254.398438 61.078125 261.910156 61.078125 270.667969 C 61.078125 288.203125 65.339844 301.539062 73.886719 309.875 C 82.414062 318.652344 98.21875 322.808594 121.644531 322.808594 C 145.53125 322.808594 161.738281 318.230469 170.304688 309.050781 C 178.8125 299.871094 183.074219 286.957031 183.074219 270.285156 L 183.074219 185.160156 Z M 121.664062 0.375 C 163.488281 0.375 194.195312 8.308594 213.800781 24.578125 C 233.425781 40.445312 243.238281 60.851562 243.238281 85.035156 L 243.238281 291.113281 C 243.238281 299.449219 241.550781 308.628906 238.574219 318.632812 C 235.558594 328.675781 229.605469 337.832031 220.214844 346.148438 C 211.265625 354.523438 198.898438 361.613281 183.113281 367.039062 C 167.328125 372.460938 146.859375 375.375 121.683594 375.375 C 96.550781 375.375 76.039062 372.460938 60.273438 367.039062 C 44.507812 361.613281 32.121094 354.523438 23.171875 346.148438 C 14.847656 338.65625 8.542969 329.195312 4.835938 318.632812 C 1.820312 308.648438 0.109375 299.46875 0.109375 291.132812 L 0.109375 258.195312 C 0.109375 240.660156 4.792969 224.390625 14.183594 210.1875 C 23.574219 195.605469 36.785156 185.605469 53.859375 179.335938 C 62.386719 176.425781 72.199219 173.511719 83.277344 169.757812 C 94.378906 165.980469 104.59375 162.222656 114.847656 158.910156 C 125.101562 155.554688 134.050781 152.203125 141.710938 149.269531 C 146.335938 147.421875 151.03125 145.757812 155.789062 144.289062 L 163.46875 140.53125 C 166.484375 138.863281 169.441406 136.355469 172.4375 133.019531 C 175.414062 129.707031 177.96875 125.949219 180.117188 121.769531 C 182.390625 117.246094 183.5625 112.25 183.539062 107.1875 L 183.539062 93.832031 C 183.570312 88.9375 182.539062 84.09375 180.519531 79.632812 C 178.832031 74.609375 175.414062 70.03125 170.726562 65.871094 C 166.042969 61.695312 159.628906 58.359375 151.96875 55.832031 C 144.285156 53.359375 134.070312 52.09375 122.527344 52.09375 C 98.640625 52.09375 82.855469 56.714844 74.328125 66.273438 C 67.089844 74.628906 62.828125 85.054688 61.984375 96.722656 C 61.984375 99.234375 59.851562 100.902344 57.277344 100.902344 L 5.257812 101.746094 C 4.023438 101.75 2.832031 101.269531 1.953125 100.402344 C 1.070312 99.539062 0.566406 98.359375 0.550781 97.125 L 0.550781 85.074219 C 0.550781 73.363281 2.703125 62.519531 7.390625 52.09375 C 12.09375 41.648438 19.351562 32.914062 29.144531 25.378906 C 38.957031 17.886719 51.769531 11.640625 67.109375 7.464844 C 82.050781 2.441406 100.390625 0.375 121.703125 0.375 Z M 121.664062 0.375 " fill-opacity="1" fill-rule="evenodd"/></g></svg>